<?xml version="1.0" encoding="utf-8"?>
<!-- Svg Vector Icons : http://www.onlinewebfonts.com/icon -->
<!DOCTYPE svg PUBLIC "-//W3C//DTD SVG 1.1//EN" "http://www.w3.org/Graphics/SVG/1.1/DTD/svg11.dtd">
<svg version="1.1" xmlns="http://www.w3.org/2000/svg" xmlns:xlink="http://www.w3.org/1999/xlink" x="0px" y="0px" viewBox="0 0 256 256" enable-background="new 0 0 256 256" xml:space="preserve">
<metadata> Svg Vector Icons : http://www.onlinewebfonts.com/icon </metadata>
<g> <path fill="#000000" d="M23.7,103L128,236.6L13.7,153.7c-3.1-2.3-4.5-6.4-3.3-10.1L23.7,103L23.7,103z M84.6,103h86.9L128,236.6 L84.6,103z M58.5,22.4L84.6,103H23.7l26.1-80.6c0.9-2.4,3.5-3.6,5.9-2.8C57,20.1,58,21.1,58.5,22.4z M232.3,103l13.3,40.6 c1.2,3.7-0.1,7.8-3.3,10.1L128,236.6L232.3,103L232.3,103z M232.3,103h-60.8l26.1-80.6c0.9-2.4,3.5-3.6,5.9-2.8 c1.3,0.5,2.3,1.5,2.8,2.8L232.3,103z"/></g>
</svg>