<?xml version="1.0" encoding="utf-8"?>
<!-- Svg Vector Icons : http://www.onlinewebfonts.com/icon -->
<!DOCTYPE svg PUBLIC "-//W3C//DTD SVG 1.1//EN" "http://www.w3.org/Graphics/SVG/1.1/DTD/svg11.dtd">
<svg version="1.1" xmlns="http://www.w3.org/2000/svg" xmlns:xlink="http://www.w3.org/1999/xlink" x="0px" y="0px" viewBox="0 0 256 256" enable-background="new 0 0 256 256" xml:space="preserve">
<metadata> Svg Vector Icons : http://www.onlinewebfonts.com/icon </metadata>
<g><g><g><path fill="#000000" d="M111.9,10.3c-38.7,2.6-67.7,12.1-74.5,24.7c-1.8,3.2-1.9,7-0.3,10.3C41.9,55.2,62.5,64,90.2,68c14.5,2,18.6,2.3,38,2.3c20.3,0,26.5-0.5,41.7-3c39.6-6.6,59.1-21.8,46.1-35.9c-9.1-9.9-32.2-17.3-63.7-20.4C144,10.1,120.4,9.7,111.9,10.3z"/><path fill="#000000" d="M35.4,51.8c-1.8,3.3-1.9,5.6-1.9,22.4c0,17.9,0.1,19.1,2.6,23.7c1.7,3.2,7.8,9.4,12.1,12.2c34.9,22.9,110.3,25.1,151.8,4.5c11.8-5.8,19.4-13.1,21.7-20.8c0.8-2.8,0.9-4.3,0.9-19.6c0-15.3-0.1-16.8-0.9-19.7c-0.5-1.7-1.1-3.1-1.3-3.2c-0.2-0.1-0.7,0.8-1.2,2c-4.1,11.6-29.9,21.6-65,25.3c-9.8,1-31.9,1.4-42.4,0.7c-40.2-2.6-70.2-13-75-26.1C36,51.2,35.8,51,35.4,51.8z"/><path fill="#000000" d="M34.7,111.2c-1,2.6-1.1,3.1-1.2,20c-0.1,16.4-0.1,17.5,0.8,20.5c7.5,24.5,65.3,40.5,120.8,33.4c35.7-4.6,61.8-17.6,66.6-33.2c0.8-2.8,0.9-4.3,0.9-19.6c0-15.3-0.1-16.8-0.9-19.5c-1.3-4.4-1.7-4.6-2.9-3c-9,12.2-30,21.9-57.2,26.4c-18,3-42.3,3.3-60.7,0.9c-21.7-2.8-40.2-8.8-52.2-16.7c-3.9-2.6-9.7-7.9-11.2-10.2c-0.5-0.9-1.1-1.6-1.3-1.6S35.3,109.8,34.7,111.2z"/><path fill="#000000" d="M34.7,170.6c-1.1,2.6-1.1,2.9-1.1,21.3v18.5l1.8,3.6c6.7,13.5,28.5,24.5,58.2,29.4c12,2,19.5,2.5,34.3,2.5c23.1,0,39.9-2.4,57.7-8.3c20.4-6.7,33.3-16.5,36.2-27.4c0.5-1.8,0.7-6.4,0.7-18.9c0-15.3-0.1-16.8-0.9-19.5c-1.3-4.2-1.7-4.6-2.7-3.2c-0.4,0.7-2.2,2.7-4,4.5c-10.5,11-32.1,19.4-59.1,23c-18.9,2.5-42.7,2.2-61.7-0.9c-27.1-4.5-48.7-14.3-56.6-26c-0.6-0.9-1.3-1.6-1.4-1.6C35.9,167.9,35.3,169.1,34.7,170.6z"/></g></g></g>
</svg>