<?xml version="1.0" encoding="utf-8"?>
<!-- Svg Vector Icons : http://www.onlinewebfonts.com/icon -->
<!DOCTYPE svg PUBLIC "-//W3C//DTD SVG 1.1//EN" "http://www.w3.org/Graphics/SVG/1.1/DTD/svg11.dtd">
<svg version="1.1" xmlns="http://www.w3.org/2000/svg" xmlns:xlink="http://www.w3.org/1999/xlink" x="0px" y="0px" viewBox="0 0 256 256" enable-background="new 0 0 256 256" xml:space="preserve">
<metadata> Svg Vector Icons : http://www.onlinewebfonts.com/icon </metadata>
<g><g><g><path fill="#000000" d="M120.5,10.7c-1.8,0.4-4.2,0.6-5.3,0.5c-1.8-0.2-3.2,0.3-9.9,3.2C92.2,20.1,85.2,24,79.6,28.5c-1.8,1.4-1.9,1.5-2.1,0.6c-0.2-0.8-1.7,0.5-9.3,8c-6.7,6.6-9.4,9.5-10.2,11.2c-0.6,1.3-1.6,2.6-2.1,3.1c-0.6,0.5-2.1,3.4-3.4,6.5c-2.7,6.4-4.2,8.7-5.6,8.7c-0.7,0-1.3,0.9-2.8,4c-3.4,7.3-9.4,24.4-9.3,26.1c0,0.4,0.2,10.9,0.4,23.3c0.3,21.7,0.4,22.8,1.6,28.8c4.1,21.1,12.5,39.1,26.2,56.3c10.9,13.7,24.6,24.9,39,32c7.3,3.6,18.2,7.3,23.5,7.9c5.1,0.6,16.6,1.2,16.3,0.8c-0.1-0.1-3.5-0.9-7.4-1.7c-12.3-2.4-14.5-3.4-21.2-9.9c-2.2-2.1-3.7-3.3-3.3-2.7c0.4,0.6,0.8,1.3,0.8,1.5c0,0.5-4.9-1.8-7.4-3.5c-1.3-0.9-3.1-1.9-4-2.1c-1.9-0.6-2-0.7-0.7-2.1l1-1.1l-1.7-0.7c-1-0.4-3.2-2.2-4.9-4c-2.7-2.8-3.4-3.3-4.8-3.3c-1.4,0-1.8-0.3-3.8-3.1c-1.2-1.7-2.6-4.2-3.2-5.5c-0.8-2-1.1-2.3-1.4-1.8c-0.3,0.6-1.2-0.4-4.2-4.6c-3.7-5.1-6.2-9.1-6.2-9.9c0-0.2,0.4-0.3,0.8-0.3c0.6,0,0.4-0.3-0.7-1.3c-2.3-2-3-3.4-2.2-4.4c0.6-0.8,0.4-1.3-1.4-4.1c-2-3.1-3-5-3.7-7.4l-0.3-1.2l1.1,1c1.3,1.1,3.2,2.2,3.2,1.8c0-0.1-0.8-1.9-1.8-3.9c-2.6-5-3.9-6.5-6.2-6.9c-2.7-0.4-4.5-2.5-6.1-6.9c-1-2.7-1.2-3.7-0.7-4c0.5-0.2,0.3-1-0.7-2.8c-1.1-2.1-1.2-2.7-0.9-5.4c0.3-2.3,0.2-3.2-0.4-4.1c-2.7-4.1-3.1-14.5-1.1-33.2l1.2-11.3l4.2-8.7c4-8.2,4.2-8.6,3.3-9l-1-0.4l0.9-1.4c3.5-5.5,14.8-17.3,20.6-21.4c3.7-2.6,5.3-3.5,8.4-4.3c1.5-0.4,2.6-1,3.1-1.7l0.7-1.1l-1.5,0.8c-2.2,1.2-1.8,0.2,1.1-2.4c3.5-3.2,6-4.3,11.3-5.1c2.5-0.4,4.9-1,5.4-1.4c0.8-0.6,0.7-0.6-1.6-0.4c-3.1,0.4-2.9-0.3,0.6-1.4c1.3-0.4,4.2-1.8,6.4-3c4.1-2.3,7.3-3.4,11.9-4.2c1.8-0.3,2.8-0.3,3,0c0.2,0.3,1.1,0.3,2.6-0.1c3.7-0.8,15.9-0.6,22,0.5c12.6,2.2,21.1,6.4,29.9,14.9c10.8,10.5,18,23.2,20.1,35.6c1.6,9.4,1.8,23.8,0.4,29.5l-0.3,1.2l0.7-1.2l0.7-1.2l0,1.6c0,2-0.9,5.4-2.5,9.7c-1,2.6-1.5,3.3-2.9,4c-1.8,0.9-3.1,3.2-2.9,5.3c0,0.7-0.1,1.7-0.3,2.3c-0.4,1.2-10.5,10.1-13.7,12.2c-2.1,1.4-4,1.9-2.9,0.8c0.3-0.3,0.6-0.7,0.6-0.9c0-0.2-1.3,0.7-3,2.1c-2.8,2.4-7.6,4.7-8.8,4.3c-0.3-0.1-1.6,0.2-2.8,0.6c-3.9,1.3-8.9,2-12.5,1.6c-13.9-1.3-26.7-10.3-33.1-23.1c-1.9-3.8-3.9-11.2-3.9-14.5c0-2.1-0.1-2.3-0.8-1.7c-0.7,0.6-0.7,0.3-0.5-4c1-15.2,10.2-27.3,24.5-32c9.3-3,20.5-1.5,28.6,4c3.5,2.4,2.5,0.8-1.7-2.5c-8.7-7-18.6-9.3-28.9-6.6c-7.2,1.9-15.3,7.6-18.1,12.8c-0.3,0.6-1.6,2.3-2.8,3.6c-1.7,1.9-2.6,3.6-4,7c-0.9,2.5-2.1,5.4-2.6,6.4c-1.2,2.4-1.7,9.2-1.2,15.5c1.1,13,6.9,22.1,21.8,34c1.4,1.1,3,2.5,3.5,3c2.2,2.2,15,4.9,23.2,4.9c15.2,0,27.7-5.3,40.1-16.9c2.9-2.7,5.3-4.9,5.4-4.9c0.1,0,0.1,0.7-0.1,1.5c-0.1,0.8-0.1,1.3,0.1,1.2c0.2-0.2,0.5-1.7,0.7-3.3c0.2-2,0.7-3.6,1.6-5.1l1.3-2.3l1.3,1.5l1.3,1.5l0.3-2c0.1-1.1,1.3-4.2,2.6-6.9c2.7-5.8,3.3-7.3,3.7-10.9c0.2-1.5,0.6-2.6,0.8-2.6c0.3,0,0.6-1,0.7-2.2l0.3-2.2l0.7,2.1l0.7,2.1l0.3-2.8c0.1-1.5,0.9-4.6,1.7-6.9c0.8-2.3,1.4-4.2,1.4-4.3c0,0-0.4,0-0.9,0.1c-1.2,0.3-1.8-0.8-2.2-4c-0.2-1.8-0.1-2.6,0.4-3.5c0.7-0.9,0.7-1.2,0.1-1.6c-0.6-0.5-2.2-4.5-2.8-7c-0.2-1-0.1-0.9,1.4,0.7c0.9,1,1.6,1.5,1.4,1.2c-0.1-0.4-0.6-2.7-1-5.1c-1-5.5-2.5-8.8-3.1-6.9c-0.6,1.7-2.2-2.1-2.2-5.1c0-1.4,0.1-1.5,1.9-1.5c1,0,1.9-0.2,1.9-0.5c0-0.3,0.2-0.5,0.4-0.5c1.1,0,5.3,9.2,7.3,15.8c0.5,1.6,1,2.7,1,2.5c0.1-0.3-0.6-2.8-1.4-5.5c-1-3.3-1.7-6.5-1.9-9l-0.3-4l0.9,1.1c1.2,1.3,1.2,1.3,0-1.9c-2-6-6.9-14.2-12.1-20.6c-4.9-6-13.6-13.6-20-17.4l-2.6-1.5l1.6,1.7c0.9,0.9,1.5,1.8,1.4,1.9c-0.7,0.6-7.4-5.1-7.4-6.3c0-0.2-1-0.6-2.2-0.9c-1.7-0.3-2.9-0.3-5.1,0.2l-2.8,0.7l-3.8-1.9c-3.3-1.7-15.9-6.3-19.7-7.2c-1-0.3-1.2-0.2-1,0.5c0.2,0.7-0.2,0.8-4.1,0.8c-2.4,0-6.2,0.1-8.5,0.4c-2.9,0.3-4,0.2-3.7-0.1c0.3-0.3,1.2-0.7,2.1-0.9c1.4-0.3,0.9-0.5-3.3-0.7c-2.7-0.2-5.5-0.2-6.1,0c-1.9,0.5-1.5-0.1,1-1.4C126.5,9.8,125.6,9.7,120.5,10.7z"/><path fill="#000000" d="M134.7,11.5c0.6,0.5,2.7,0.7,2.7,0.3c0-0.2-0.7-0.5-1.5-0.5C135.2,11.3,134.6,11.4,134.7,11.5z"/><path fill="#000000" d="M39.2,61.4c-0.1,1-0.4,2.2-0.6,2.6c-0.3,0.9-0.3,0.9,0.9,0c0.6-0.5,1.3-1.3,1.4-1.9c0.1-0.5,0.4-1.3,0.6-1.7c0.2-0.6,0-0.7-0.9-0.7C39.7,59.7,39.5,60,39.2,61.4z"/><path fill="#000000" d="M33.9,79c-0.7,1.5-1,3.2-0.7,4.2c0.3,0.7,0.5,0.4,0.9-1.5C34.9,79,34.7,77.5,33.9,79z"/><path fill="#000000" d="M175.2,104c-0.8,0.9-0.8,2.1,0,3.8l0.6,1.4l0.2-1.5c0.1-0.8,0.1-2.1,0-3C175.8,103.4,175.7,103.3,175.2,104z"/><path fill="#000000" d="M218,118.2c0,0.7,0.1,0.9,0.2,0.6c0.1-0.3,0.1-0.8,0-1.2C218.1,117.4,218,117.6,218,118.2z"/><path fill="#000000" d="M217.5,121c0,0.7,0.1,0.9,0.2,0.6c0.1-0.3,0.1-0.8,0-1.2C217.6,120.2,217.5,120.4,217.5,121z"/><path fill="#000000" d="M167.5,123c-0.7,1.1-1.3,2.3-1.3,2.7c0,0.4,0.6-0.4,1.4-1.8C169.4,120.9,169.3,120.3,167.5,123z"/><path fill="#000000" d="M170.9,123.2c-0.6,1.3-1.8,2.5-2.6,2.9c-1.4,0.7-1.4,0.8-0.5,1.3c0.8,0.5,1,0.5,1.4,0c0.8-1.3,3.2-6,3.1-6.2C172.1,121.2,171.5,122.1,170.9,123.2z"/><path fill="#000000" d="M150,134c-2.4,0.1-4.2,0.4-3.9,0.6s2,0.7,3.7,1.2l3.3,0.9l1.8-1.5c1.7-1.4,1.8-1.6,0.7-1.5C154.9,133.7,152.4,133.9,150,134z"/><path fill="#000000" d="M109.2,138.1c0.8,1.6,1.6,2.8,1.7,2.7c0.3-0.3-1.1-3.1-2.2-4.5C108,135.6,108.2,136.2,109.2,138.1z"/><path fill="#000000" d="M103.9,140.8c-0.2,0.9,0.4,2.1,2.6,5.3c2.7,3.7,4.4,5.7,4.4,5.1c0-0.3-6-10.6-6.5-11.2C104.3,139.7,104,140.1,103.9,140.8z"/><path fill="#000000" d="M110.4,145.3c1.5,2.6,6.6,7.8,10.4,10.6c10.3,7.7,22.5,12,33,11.5c7.1-0.3,8.8-1.2,2.4-1.3c-5.5,0-12.3-0.9-15.9-2.1c-2.5-0.8-5.7-2.7-7.9-4.7c-0.7-0.7-1.3-0.9-1.3-0.7c0,1.3-7.1-3.3-11.6-7.5c-2.2-2.1-2.4-2.2-1.4-0.7c0.6,0.9,2,2.6,3.2,3.9c1.2,1.2,1.7,2,1.2,1.8c-1.7-0.8-5.1-4.1-8.6-8.2C110.3,143.8,108.8,142.6,110.4,145.3z"/></g></g></g>
</svg>