<?xml version="1.0" encoding="utf-8"?>
<!-- Svg Vector Icons : http://www.onlinewebfonts.com/icon -->
<!DOCTYPE svg PUBLIC "-//W3C//DTD SVG 1.1//EN" "http://www.w3.org/Graphics/SVG/1.1/DTD/svg11.dtd">
<svg version="1.1" xmlns="http://www.w3.org/2000/svg" xmlns:xlink="http://www.w3.org/1999/xlink" x="0px" y="0px" viewBox="0 0 256 256" enable-background="new 0 0 256 256" xml:space="preserve">
<metadata> Svg Vector Icons : http://www.onlinewebfonts.com/icon </metadata>
<g> <path fill="#000000" d="M57.4,179.8c-6.7,0-12.8-5.5-12.8-12.2c0-6.7,5.5-12.2,12.8-12.2c7.4,0,12.9,5.5,12.9,12.2 S64.2,179.8,57.4,179.8L57.4,179.8z M214.9,113.3c-1.3-9.8-7.4-17.7-15.3-23.8l-3.1-2.5l-2.5,3c-4.9,5.5-6.8,15.3-6.2,22.6 c0.6,5.5,2.4,11,5.4,15.3c-2.5,1.3-5.6,2.5-8,3.7c-5.3,1.7-10.9,2.5-16.5,2.5H10.9l-0.6,3.6c-1.2,11.9,0.7,23.9,5.5,34.8l2.4,4.3 v0.6c14.8,24.4,41,35.4,69.6,35.4c55,0,100.1-23.8,121.5-75.1c14,0.6,28.2-3,34.8-16.5l1.8-3l-2.9-1.8c-8-4.9-18.9-5.5-28-3 L214.9,113.3L214.9,113.3z M136.1,103.6h-23.9v23.8h23.9L136.1,103.6L136.1,103.6L136.1,103.6z M136.1,73.7h-23.9v23.8h23.9 L136.1,73.7L136.1,73.7z M136.1,43.1h-23.9v23.8h23.9L136.1,43.1L136.1,43.1z M165.3,103.6h-23.7v23.8h23.8L165.3,103.6 L165.3,103.6L165.3,103.6z M76.8,103.6H53.1v23.8h23.8L76.8,103.6L76.8,103.6L76.8,103.6z M106.6,103.6H83v23.8h23.7v-23.8 L106.6,103.6L106.6,103.6z M47.3,103.6H23.8v23.8h23.9v-23.8L47.3,103.6L47.3,103.6z M106.6,73.7H83v23.8h23.7V73.7L106.6,73.7 L106.6,73.7z M76.7,73.7H53.1v23.8h23.7V73.7L76.7,73.7L76.7,73.7z"/></g>
</svg>