<?xml version="1.0" encoding="utf-8"?>
<!-- Svg Vector Icons : http://www.onlinewebfonts.com/icon -->
<!DOCTYPE svg PUBLIC "-//W3C//DTD SVG 1.1//EN" "http://www.w3.org/Graphics/SVG/1.1/DTD/svg11.dtd">
<svg version="1.1" xmlns="http://www.w3.org/2000/svg" xmlns:xlink="http://www.w3.org/1999/xlink" x="0px" y="0px" viewBox="0 0 256 256" enable-background="new 0 0 256 256" xml:space="preserve">
<metadata> Svg Vector Icons : http://www.onlinewebfonts.com/icon </metadata>
<g><g><path fill="#000000" d="M241.5,117.5l-103-103c-5.9-5.9-15.6-5.9-21.5,0L93.1,38.4l18,18c2.9-1.4,6.1-2.2,9.5-2.2c12.2,0,22.1,9.9,22.1,22.1c0,3.4-0.8,6.6-2.2,9.5l29.5,29.5c2.9-1.4,6.1-2.2,9.5-2.2c12.2,0,22.1,9.9,22.1,22.1c0,12.2-9.9,22.1-22.1,22.1s-22.1-9.9-22.1-22.1c0-3.4,0.8-6.6,2.2-9.5l-29.5-29.5c-0.7,0.3-1.4,0.6-2.2,0.9v61.5c8.6,3,14.7,11.2,14.7,20.9c0,12.2-9.9,22.1-22.1,22.1c-12.2,0-22.1-9.9-22.1-22.1c0-9.6,6.2-17.8,14.7-20.9V97.2c-8.6-3-14.7-11.2-14.7-20.9c0-3.4,0.8-6.6,2.2-9.5l-18-18L14.4,117c-5.9,5.9-5.9,15.6,0,21.5l103,103c5.9,5.9,15.6,5.9,21.5,0L241.6,139C247.5,133.1,247.5,123.4,241.5,117.5L241.5,117.5z"/></g></g>
</svg>