<?xml version="1.0" encoding="utf-8"?>
<!-- Svg Vector Icons : http://www.onlinewebfonts.com/icon -->
<!DOCTYPE svg PUBLIC "-//W3C//DTD SVG 1.1//EN" "http://www.w3.org/Graphics/SVG/1.1/DTD/svg11.dtd">
<svg version="1.1" xmlns="http://www.w3.org/2000/svg" xmlns:xlink="http://www.w3.org/1999/xlink" x="0px" y="0px" viewBox="0 0 256 256" enable-background="new 0 0 256 256" xml:space="preserve">
<metadata> Svg Vector Icons : http://www.onlinewebfonts.com/icon </metadata>
<g><g><g><path fill="#000000" d="M55.4,27.7v17.6h5.9h5.9v-6.9v-6.9h4.7h4.7v6.9v6.9h6.1h6.1l-0.1-17.5l-0.1-17.5l-6-0.1l-6-0.1v6.7v6.6h-4.7h-4.7v-6.6V10h-5.9h-5.9V27.7L55.4,27.7z"/><path fill="#000000" d="M93.2,14.2v4.2l4.1,0.1l4,0.1l0.1,13.3l0.1,13.4h5.6h5.6V31.9V18.4h4.2h4.2l-0.1-4.1l-0.1-4l-13.8-0.1L93.2,10V14.2L93.2,14.2z"/><path fill="#000000" d="M125.5,27.7v17.6h4.7h4.7l0-12.2V21.1l2.7,8.8c1.5,4.9,3.1,10.3,3.7,12.1l1,3.3h3.8h3.8l3.3-11.7c1.9-6.4,3.5-12,3.7-12.4c0.2-0.4,0.4,4.9,0.4,11.6v12.4h4.7h4.7V27.7V10h-7h-7.1l-2.6,9.1c-1.4,5-2.7,9.1-2.9,9.1c-0.1,0-1.5-4-3-9l-2.7-8.9l-7.9-0.1l-7.9-0.1L125.5,27.7L125.5,27.7z"/><path fill="#000000" d="M173.1,27.7v17.6h13.7h13.7v-4.2V37H193h-7.6V23.5V10h-6.1h-6.1V27.7z"/><path fill="#000000" d="M45.6,60.6c0,3.3,13.3,155.6,13.6,155.8c0.5,0.5,66.9,29.5,67.6,29.5c0.4,0,66.3-26.5,66.8-26.9c0.1-0.1,16.8-157.7,16.8-158.7c0-0.2-37.1-0.3-82.4-0.3C62.5,60.1,45.6,60.2,45.6,60.6z M174.6,107.1v9.3h-38.7H97.1v9.6v9.6h38.7h38.7v28.3v28.3l-23.6,9.9c-13,5.4-23.9,9.9-24.1,9.9c-0.3,0-11.1-4.5-24.2-9.9l-23.7-10V181v-11.2H88h9l0.1,5l0.1,5l14.7,4.9l14.7,4.8l14.2-4.8c13.9-4.7,14.2-4.9,14.6-6.3c0.2-0.8,0.4-6.7,0.6-13.1l0.2-11.6h-38.7H79v-27.9V97.8h47.8h47.8V107.1L174.6,107.1z"/></g></g></g>
</svg>