<?xml version="1.0" encoding="utf-8"?>
<!-- Svg Vector Icons : http://www.onlinewebfonts.com/icon -->
<!DOCTYPE svg PUBLIC "-//W3C//DTD SVG 1.1//EN" "http://www.w3.org/Graphics/SVG/1.1/DTD/svg11.dtd">
<svg version="1.1" xmlns="http://www.w3.org/2000/svg" xmlns:xlink="http://www.w3.org/1999/xlink" x="0px" y="0px" viewBox="0 0 256 256" enable-background="new 0 0 256 256" xml:space="preserve">
<metadata> Svg Vector Icons : http://www.onlinewebfonts.com/icon </metadata>
<g><g><g><path fill="#000000" d="M94.1,10.4c-5.4,1.1-14.9,6.8-25.1,15.1c-6.6,5.4-22.3,21-27.7,27.7C32.6,63.9,27.1,73,26.1,78.8c-0.3,1.9-0.4,25.9-0.3,71.9c0.1,65,0.2,69.4,1,72.1c2.6,8.5,9,16.3,16.6,19.9c7.4,3.5,3.3,3.3,69.2,3.3c56.3,0,59.8,0,62.8-0.9c10.6-3,19.7-12,22.4-22.3c0.4-1.6,0.9-5.9,1.1-9.5l0.3-6.5h-7.9h-7.9l-0.2,6.3c-0.1,5.4-0.3,6.6-1.3,8.5c-1.5,3-4.2,5.7-7.2,7.3l-2.5,1.3l-59.3,0.1l-59.3,0.1l-2.8-1.2c-3.4-1.6-6.1-4.1-7.8-7.4l-1.3-2.5l-0.1-69.3l-0.1-69.3l14.4-0.2c16.1-0.2,17.6-0.5,23.8-3.7c4.7-2.4,10.7-8.5,13.2-13.2c3.2-6.2,3.4-7.7,3.7-23.8l0.2-14.4l37.8,0.1l37.7,0.1l2.5,1.3c3.3,1.7,5.8,4.4,7.3,7.8l1.3,2.7v41.2v41.3h7.9h7.9l-0.2-42c-0.1-46.6,0-43.6-3.6-51.1c-2.4-4.9-8.3-10.8-13.2-13.4c-7.1-3.7-4.9-3.5-47.5-3.6C113.3,10,95.3,10.1,94.1,10.4z"/><path fill="#000000" d="M84.8,128.8c-3.4,0.9-5.5,2.2-7.9,4.9c-3.7,4.2-3.7,4.4-3.7,29.8c0,26.3-0.1,25.9,4.6,30.6c5.1,5-1.6,4.6,73.9,4.6c75.5,0,68.9,0.4,73.9-4.6c4.7-4.7,4.6-4.3,4.6-30.6s0.1-25.9-4.6-30.6c-5.1-5.1,1.8-4.6-72.9-4.7C96.7,128.1,87,128.2,84.8,128.8z M121.4,145.2c1.4,0.6,3.1,1.7,3.8,2.5c1.7,1.6,3.5,5,3,5.5c-0.4,0.3-5.2,1.5-6.4,1.5c-0.4,0-0.7-0.3-0.7-0.6c0-1.1-2.7-3.2-4.9-3.8c-4.3-1.1-10.4,0.4-11.4,2.9c-1.1,2.9,0.9,4.4,8,6c13.4,3,17.5,6.1,17,13.1c-0.3,4.3-2,6.7-6.5,9.1c-3.4,1.7-3.4,1.7-9.9,1.7c-6.1,0-6.6-0.1-9.4-1.4c-3.4-1.6-5.4-3.3-6.7-5.9c-1.4-2.8-1.3-3.1,2.4-4c3-0.7,3.4-0.7,3.8,0c2.5,3.9,4.8,5.2,10.1,5.2c8.9,0,12.7-5.5,6-8.9c-0.6-0.3-3.9-1.2-7.3-2c-3.4-0.8-7.3-2-8.7-2.5c-9.4-4-8.1-15.6,2.1-19C109.4,143.4,118.3,143.8,121.4,145.2z M165.1,145.7c8.7,4.2,12.6,14.4,9.4,24.5c-0.8,2.5-2.7,5.8-3.6,6.4c-0.9,0.5,0.2,1.5,3.2,2.7l2.7,1.1l-1.2,2.5c-1.4,2.8-1.4,2.8-6.8,0l-3.4-1.8l-2.5,0.8c-3.5,1.2-10.5,1.2-14.3-0.1c-5.5-1.9-10.2-6.6-11.8-12c-0.4-1.4-0.7-4.3-0.7-6.6c0-6.8,2.3-11.8,7.2-15.6c3.7-2.9,7.3-3.8,13.5-3.6C161.4,144,162.2,144.2,165.1,145.7z M190.6,160.3v16.5h10.6h10.6v3.2v3.2h-14.3h-14.3v-19.7v-19.7h3.7h3.7L190.6,160.3L190.6,160.3z"/><path fill="#000000" d="M151.7,150.1c-5.8,1.9-8.6,6.1-8.6,13.1c0,8.4,4.1,13,11.8,13.3c3.2,0.1,3.3,0.1,1.6-0.4c-2-0.6-2-0.7-0.5-4.3c0.6-1.4,0.8-1.6,2-1.3c0.8,0.1,2.6,0.8,4,1.5c3.1,1.4,3.4,1.2,5.1-2.2c0.9-1.9,1.1-3.1,1.1-6.5c0-8.6-4.1-13.3-11.8-13.6C154.5,149.8,152.4,149.9,151.7,150.1z"/></g></g></g>
</svg>