<?xml version="1.0" encoding="utf-8"?>
<!-- Svg Vector Icons : http://www.onlinewebfonts.com/icon -->
<!DOCTYPE svg PUBLIC "-//W3C//DTD SVG 1.1//EN" "http://www.w3.org/Graphics/SVG/1.1/DTD/svg11.dtd">
<svg version="1.1" xmlns="http://www.w3.org/2000/svg" xmlns:xlink="http://www.w3.org/1999/xlink" x="0px" y="0px" viewBox="0 0 256 256" enable-background="new 0 0 256 256" xml:space="preserve">
<metadata> Svg Vector Icons : http://www.onlinewebfonts.com/icon </metadata>
<g><g><g><path fill="#000000" d="M139.5,60.1C118,62.6,99,78.3,92.5,98.8c-0.7,2.2-1.3,4.2-1.4,4.3c0,0.1-1.5-1.3-3.2-3.1c-5.5-5.5-11.9-8.2-19.8-8.2c-8,0-14.4,2.8-19.9,8.6c-4.5,4.8-6.8,10-7.5,17.2l-0.3,3.6l-4,1.3c-12,3.8-21,13-24.9,25.2c-1.5,4.6-1.8,13.6-0.7,18.5c3.1,13.7,13.3,24.7,27,29l3.5,1.1h86.5h86.5l4.2-1.3c13.5-4.3,23.1-14,26.7-27.1c1.5-5.5,1.4-14.2-0.3-19.7c-2.1-7-5.3-12.3-10.3-17.1c-7.3-6.9-16.5-10.5-26.9-10.5h-4.6l0.2-2.5c0.1-1.4,0-4.8-0.3-7.5c-2.8-26.8-23.3-47.5-50.2-50.5C147.9,59.6,144.4,59.6,139.5,60.1z"/></g></g></g>
</svg>